<svg width="133" height="133" viewBox="0 0 133 133" fill="none" xmlns="http://www.w3.org/2000/svg">
<g clip-path="url(#clip0_71_1287)">
<path d="M36.2725 0H32.2422V4.0303H36.2725V0Z" fill="#335D36"/>
<path d="M40.3038 0H36.2734V4.0303H40.3038V0Z" fill="#335D36"/>
<path d="M64.4835 0H60.4531V4.0303H64.4835V0Z" fill="#335D36"/>
<path d="M68.5147 0H64.4844V4.0303H68.5147V0Z" fill="#335D36"/>
<path d="M72.5455 0H68.5156V4.0303H72.5455V0Z" fill="#335D36"/>
<path d="M96.7296 0H92.6992V4.0303H96.7296V0Z" fill="#335D36"/>
<path d="M100.757 0H96.7266V4.0303H100.757V0Z" fill="#335D36"/>
<path d="M40.3038 4.03041H36.2734V8.06073H40.3038V4.03041Z" fill="#335D36"/>
<path d="M68.5147 4.03041H64.4844V8.06073H68.5147V4.03041Z" fill="#335D36"/>
<path d="M72.5455 4.03041H68.5156V8.06073H72.5455V4.03041Z" fill="#335D36"/>
<path d="M80.6046 4.03041H76.5742V8.06073H80.6046V4.03041Z" fill="#335D36"/>
<path d="M84.6358 4.03041H80.6055V8.06073H84.6358V4.03041Z" fill="#335D36"/>
<path d="M88.6671 4.03041H84.6367V8.06073H88.6671V4.03041Z" fill="#335D36"/>
<path d="M40.3038 8.06084H36.2734V12.0911H40.3038V8.06084Z" fill="#335D36"/>
<path d="M44.335 8.06084H40.3047V12.0911H44.335V8.06084Z" fill="#335D36"/>
<path d="M52.3936 8.06084H48.3633V12.0911H52.3936V8.06084Z" fill="#335D36"/>
<path d="M56.4249 8.06084H52.3945V12.0911H56.4249V8.06084Z" fill="#335D36"/>
<path d="M84.6358 8.06084H80.6055V12.0911H84.6358V8.06084Z" fill="#335D36"/>
<path d="M88.6671 8.06084H84.6367V12.0911H88.6671V8.06084Z" fill="#335D36"/>
<path d="M96.7296 8.06084H92.6992V12.0911H96.7296V8.06084Z" fill="#335D36"/>
<path d="M100.757 8.06084H96.7266V12.0911H100.757V8.06084Z" fill="#335D36"/>
<path d="M36.2725 12.0907H32.2422V16.121H36.2725V12.0907Z" fill="#335D36"/>
<path d="M40.3038 12.0907H36.2734V16.121H40.3038V12.0907Z" fill="#335D36"/>
<path d="M48.3662 12.0907H44.3359V16.121H48.3662V12.0907Z" fill="#335D36"/>
<path d="M52.3936 12.0907H48.3633V16.121H52.3936V12.0907Z" fill="#335D36"/>
<path d="M60.4561 12.0907H56.4258V16.121H60.4561V12.0907Z" fill="#335D36"/>
<path d="M72.5455 12.0907H68.5156V16.121H72.5455V12.0907Z" fill="#335D36"/>
<path d="M76.5767 12.0907H72.5469V16.121H76.5767V12.0907Z" fill="#335D36"/>
<path d="M84.6358 12.0907H80.6055V16.121H84.6358V12.0907Z" fill="#335D36"/>
<path d="M92.6944 12.0907H88.6641V16.121H92.6944V12.0907Z" fill="#335D36"/>
<path d="M96.7296 12.0907H92.6992V16.121H96.7296V12.0907Z" fill="#335D36"/>
<path d="M100.757 12.0907H96.7266V16.121H100.757V12.0907Z" fill="#335D36"/>
<path d="M36.2725 16.1212H32.2422V20.1514H36.2725V16.1212Z" fill="#335D36"/>
<path d="M40.3038 16.1212H36.2734V20.1514H40.3038V16.1212Z" fill="#335D36"/>
<path d="M52.3936 16.1212H48.3633V20.1514H52.3936V16.1212Z" fill="#335D36"/>
<path d="M56.4249 16.1212H52.3945V20.1514H56.4249V16.1212Z" fill="#335D36"/>
<path d="M60.4561 16.1212H56.4258V20.1514H60.4561V16.1212Z" fill="#335D36"/>
<path d="M76.5767 16.1212H72.5469V20.1514H76.5767V16.1212Z" fill="#335D36"/>
<path d="M80.6046 16.1212H76.5742V20.1514H80.6046V16.1212Z" fill="#335D36"/>
<path d="M84.6358 16.1212H80.6055V20.1514H84.6358V16.1212Z" fill="#335D36"/>
<path d="M88.6671 16.1212H84.6367V20.1514H88.6671V16.1212Z" fill="#335D36"/>
<path d="M92.6944 16.1212H88.6641V20.1514H92.6944V16.1212Z" fill="#335D36"/>
<path d="M96.7296 16.1212H92.6992V20.1514H96.7296V16.1212Z" fill="#335D36"/>
<path d="M100.757 16.1212H96.7266V20.1514H100.757V16.1212Z" fill="#335D36"/>
<path d="M36.2725 20.1516H32.2422V24.1818H36.2725V20.1516Z" fill="#335D36"/>
<path d="M44.335 20.1516H40.3047V24.1818H44.335V20.1516Z" fill="#335D36"/>
<path d="M60.4561 20.1516H56.4258V24.1818H60.4561V20.1516Z" fill="#335D36"/>
<path d="M68.5147 20.1516H64.4844V24.1818H68.5147V20.1516Z" fill="#335D36"/>
<path d="M72.5455 20.1516H68.5156V24.1818H72.5455V20.1516Z" fill="#335D36"/>
<path d="M80.6046 20.1516H76.5742V24.1818H80.6046V20.1516Z" fill="#335D36"/>
<path d="M88.6671 20.1516H84.6367V24.1818H88.6671V20.1516Z" fill="#335D36"/>
<path d="M92.6944 20.1516H88.6641V24.1818H92.6944V20.1516Z" fill="#335D36"/>
<path d="M100.757 20.1516H96.7266V24.1818H100.757V20.1516Z" fill="#335D36"/>
<path d="M36.2725 24.1819H32.2422V28.2122H36.2725V24.1819Z" fill="#335D36"/>
<path d="M44.335 24.1819H40.3047V28.2122H44.335V24.1819Z" fill="#335D36"/>
<path d="M52.3936 24.1819H48.3633V28.2122H52.3936V24.1819Z" fill="#335D36"/>
<path d="M60.4561 24.1819H56.4258V28.2122H60.4561V24.1819Z" fill="#335D36"/>
<path d="M68.5147 24.1819H64.4844V28.2122H68.5147V24.1819Z" fill="#335D36"/>
<path d="M76.5767 24.1819H72.5469V28.2122H76.5767V24.1819Z" fill="#335D36"/>
<path d="M84.6358 24.1819H80.6055V28.2122H84.6358V24.1819Z" fill="#335D36"/>
<path d="M92.6944 24.1819H88.6641V28.2122H92.6944V24.1819Z" fill="#335D36"/>
<path d="M100.757 24.1819H96.7266V28.2122H100.757V24.1819Z" fill="#335D36"/>
<path d="M36.2725 28.2118H32.2422V32.2422H36.2725V28.2118Z" fill="#335D36"/>
<path d="M40.3038 28.2118H36.2734V32.2422H40.3038V28.2118Z" fill="#335D36"/>
<path d="M44.335 28.2118H40.3047V32.2422H44.335V28.2118Z" fill="#335D36"/>
<path d="M48.3662 28.2118H44.3359V32.2422H48.3662V28.2118Z" fill="#335D36"/>
<path d="M60.4561 28.2118H56.4258V32.2422H60.4561V28.2118Z" fill="#335D36"/>
<path d="M64.4835 28.2118H60.4531V32.2422H64.4835V28.2118Z" fill="#335D36"/>
<path d="M68.5147 28.2118H64.4844V32.2422H68.5147V28.2118Z" fill="#335D36"/>
<path d="M72.5455 28.2118H68.5156V32.2422H72.5455V28.2118Z" fill="#335D36"/>
<path d="M76.5767 28.2118H72.5469V32.2422H76.5767V28.2118Z" fill="#335D36"/>
<path d="M88.6671 28.2118H84.6367V32.2422H88.6671V28.2118Z" fill="#335D36"/>
<path d="M92.6944 28.2118H88.6641V32.2422H92.6944V28.2118Z" fill="#335D36"/>
<path d="M100.757 28.2118H96.7266V32.2422H100.757V28.2118Z" fill="#335D36"/>
<path d="M4.0303 32.2422H0V36.2726H4.0303V32.2422Z" fill="#335D36"/>
<path d="M20.1514 32.2422H16.1211V36.2726H20.1514V32.2422Z" fill="#335D36"/>
<path d="M28.2099 32.2422H24.1797V36.2726H28.2099V32.2422Z" fill="#335D36"/>
<path d="M32.2413 32.2422H28.2109V36.2726H32.2413V32.2422Z" fill="#335D36"/>
<path d="M36.2725 32.2422H32.2422V36.2726H36.2725V32.2422Z" fill="#335D36"/>
<path d="M44.335 32.2422H40.3047V36.2726H44.335V32.2422Z" fill="#335D36"/>
<path d="M48.3662 32.2422H44.3359V36.2726H48.3662V32.2422Z" fill="#335D36"/>
<path d="M68.5147 32.2422H64.4844V36.2726H68.5147V32.2422Z" fill="#335D36"/>
<path d="M72.5455 32.2422H68.5156V36.2726H72.5455V32.2422Z" fill="#335D36"/>
<path d="M76.5767 32.2422H72.5469V36.2726H76.5767V32.2422Z" fill="#335D36"/>
<path d="M80.6046 32.2422H76.5742V36.2726H80.6046V32.2422Z" fill="#335D36"/>
<path d="M88.6671 32.2422H84.6367V36.2726H88.6671V32.2422Z" fill="#335D36"/>
<path d="M92.6944 32.2422H88.6641V36.2726H92.6944V32.2422Z" fill="#335D36"/>
<path d="M96.7296 32.2422H92.6992V36.2726H96.7296V32.2422Z" fill="#335D36"/>
<path d="M104.788 32.2422H100.758V36.2726H104.788V32.2422Z" fill="#335D36"/>
<path d="M108.819 32.2422H104.789V36.2726H108.819V32.2422Z" fill="#335D36"/>
<path d="M112.846 32.2422H108.816V36.2726H112.846V32.2422Z" fill="#335D36"/>
<path d="M116.877 32.2422H112.848V36.2726H116.877V32.2422Z" fill="#335D36"/>
<path d="M120.909 32.2422H116.879V36.2726H120.909V32.2422Z" fill="#335D36"/>
<path d="M132.999 32.2422H128.969V36.2726H132.999V32.2422Z" fill="#335D36"/>
<path d="M4.0303 36.2727H0V40.303H4.0303V36.2727Z" fill="#335D36"/>
<path d="M20.1514 36.2727H16.1211V40.303H20.1514V36.2727Z" fill="#335D36"/>
<path d="M24.1827 36.2727H20.1523V40.303H24.1827V36.2727Z" fill="#335D36"/>
<path d="M32.2413 36.2727H28.2109V40.303H32.2413V36.2727Z" fill="#335D36"/>
<path d="M36.2725 36.2727H32.2422V40.303H36.2725V36.2727Z" fill="#335D36"/>
<path d="M44.335 36.2727H40.3047V40.303H44.335V36.2727Z" fill="#335D36"/>
<path d="M48.3662 36.2727H44.3359V40.303H48.3662V36.2727Z" fill="#335D36"/>
<path d="M56.4249 36.2727H52.3945V40.303H56.4249V36.2727Z" fill="#335D36"/>
<path d="M60.4561 36.2727H56.4258V40.303H60.4561V36.2727Z" fill="#335D36"/>
<path d="M64.4835 36.2727H60.4531V40.303H64.4835V36.2727Z" fill="#335D36"/>
<path d="M84.6358 36.2727H80.6055V40.303H84.6358V36.2727Z" fill="#335D36"/>
<path d="M96.7296 36.2727H92.6992V40.303H96.7296V36.2727Z" fill="#335D36"/>
<path d="M104.788 36.2727H100.758V40.303H104.788V36.2727Z" fill="#335D36"/>
<path d="M120.909 36.2727H116.879V40.303H120.909V36.2727Z" fill="#335D36"/>
<path d="M124.941 36.2727H120.91V40.303H124.941V36.2727Z" fill="#335D36"/>
<path d="M4.0303 40.3031H0V44.3334H4.0303V40.3031Z" fill="#335D36"/>
<path d="M8.06153 40.3031H4.03125V44.3334H8.06153V40.3031Z" fill="#335D36"/>
<path d="M12.0889 40.3031H8.05859V44.3334H12.0889V40.3031Z" fill="#335D36"/>
<path d="M24.1827 40.3031H20.1523V44.3334H24.1827V40.3031Z" fill="#335D36"/>
<path d="M28.2099 40.3031H24.1797V44.3334H28.2099V40.3031Z" fill="#335D36"/>
<path d="M32.2413 40.3031H28.2109V44.3334H32.2413V40.3031Z" fill="#335D36"/>
<path d="M52.3936 40.3031H48.3633V44.3334H52.3936V40.3031Z" fill="#335D36"/>
<path d="M64.4835 40.3031H60.4531V44.3334H64.4835V40.3031Z" fill="#335D36"/>
<path d="M72.5455 40.3031H68.5156V44.3334H72.5455V40.3031Z" fill="#335D36"/>
<path d="M84.6358 40.3031H80.6055V44.3334H84.6358V40.3031Z" fill="#335D36"/>
<path d="M92.6944 40.3031H88.6641V44.3334H92.6944V40.3031Z" fill="#335D36"/>
<path d="M96.7296 40.3031H92.6992V44.3334H96.7296V40.3031Z" fill="#335D36"/>
<path d="M104.788 40.3031H100.758V44.3334H104.788V40.3031Z" fill="#335D36"/>
<path d="M120.909 40.3031H116.879V44.3334H120.909V40.3031Z" fill="#335D36"/>
<path d="M8.06153 44.3335H4.03125V48.3638H8.06153V44.3335Z" fill="#335D36"/>
<path d="M12.0889 44.3335H8.05859V48.3638H12.0889V44.3335Z" fill="#335D36"/>
<path d="M32.2413 44.3335H28.2109V48.3638H32.2413V44.3335Z" fill="#335D36"/>
<path d="M44.335 44.3335H40.3047V48.3638H44.335V44.3335Z" fill="#335D36"/>
<path d="M48.3662 44.3335H44.3359V48.3638H48.3662V44.3335Z" fill="#335D36"/>
<path d="M52.3936 44.3335H48.3633V48.3638H52.3936V44.3335Z" fill="#335D36"/>
<path d="M60.4561 44.3335H56.4258V48.3638H60.4561V44.3335Z" fill="#335D36"/>
<path d="M64.4835 44.3335H60.4531V48.3638H64.4835V44.3335Z" fill="#335D36"/>
<path d="M68.5147 44.3335H64.4844V48.3638H68.5147V44.3335Z" fill="#335D36"/>
<path d="M72.5455 44.3335H68.5156V48.3638H72.5455V44.3335Z" fill="#335D36"/>
<path d="M76.5767 44.3335H72.5469V48.3638H76.5767V44.3335Z" fill="#335D36"/>
<path d="M80.6046 44.3335H76.5742V48.3638H80.6046V44.3335Z" fill="#335D36"/>
<path d="M84.6358 44.3335H80.6055V48.3638H84.6358V44.3335Z" fill="#335D36"/>
<path d="M88.6671 44.3335H84.6367V48.3638H88.6671V44.3335Z" fill="#335D36"/>
<path d="M96.7296 44.3335H92.6992V48.3638H96.7296V44.3335Z" fill="#335D36"/>
<path d="M100.757 44.3335H96.7266V48.3638H100.757V44.3335Z" fill="#335D36"/>
<path d="M104.788 44.3335H100.758V48.3638H104.788V44.3335Z" fill="#335D36"/>
<path d="M108.819 44.3335H104.789V48.3638H108.819V44.3335Z" fill="#335D36"/>
<path d="M128.972 44.3335H124.941V48.3638H128.972V44.3335Z" fill="#335D36"/>
<path d="M4.0303 48.3634H0V52.3937H4.0303V48.3634Z" fill="#335D36"/>
<path d="M12.0889 48.3634H8.05859V52.3937H12.0889V48.3634Z" fill="#335D36"/>
<path d="M16.1202 48.3634H12.0898V52.3937H16.1202V48.3634Z" fill="#335D36"/>
<path d="M28.2099 48.3634H24.1797V52.3937H28.2099V48.3634Z" fill="#335D36"/>
<path d="M32.2413 48.3634H28.2109V52.3937H32.2413V48.3634Z" fill="#335D36"/>
<path d="M40.3038 48.3634H36.2734V52.3937H40.3038V48.3634Z" fill="#335D36"/>
<path d="M52.3936 48.3634H48.3633V52.3937H52.3936V48.3634Z" fill="#335D36"/>
<path d="M56.4249 48.3634H52.3945V52.3937H56.4249V48.3634Z" fill="#335D36"/>
<path d="M60.4561 48.3634H56.4258V52.3937H60.4561V48.3634Z" fill="#335D36"/>
<path d="M76.5767 48.3634H72.5469V52.3937H76.5767V48.3634Z" fill="#335D36"/>
<path d="M80.6046 48.3634H76.5742V52.3937H80.6046V48.3634Z" fill="#335D36"/>
<path d="M84.6358 48.3634H80.6055V52.3937H84.6358V48.3634Z" fill="#335D36"/>
<path d="M88.6671 48.3634H84.6367V52.3937H88.6671V48.3634Z" fill="#335D36"/>
<path d="M100.757 48.3634H96.7266V52.3937H100.757V48.3634Z" fill="#335D36"/>
<path d="M104.788 48.3634H100.758V52.3937H104.788V48.3634Z" fill="#335D36"/>
<path d="M108.819 48.3634H104.789V52.3937H108.819V48.3634Z" fill="#335D36"/>
<path d="M112.846 48.3634H108.816V52.3937H112.846V48.3634Z" fill="#335D36"/>
<path d="M116.877 48.3634H112.848V52.3937H116.877V48.3634Z" fill="#335D36"/>
<path d="M120.909 48.3634H116.879V52.3937H120.909V48.3634Z" fill="#335D36"/>
<path d="M128.972 48.3634H124.941V52.3937H128.972V48.3634Z" fill="#335D36"/>
<path d="M4.0303 52.3937H0V56.4241H4.0303V52.3937Z" fill="#335D36"/>
<path d="M20.1514 52.3937H16.1211V56.4241H20.1514V52.3937Z" fill="#335D36"/>
<path d="M24.1827 52.3937H20.1523V56.4241H24.1827V52.3937Z" fill="#335D36"/>
<path d="M32.2413 52.3937H28.2109V56.4241H32.2413V52.3937Z" fill="#335D36"/>
<path d="M44.335 52.3937H40.3047V56.4241H44.335V52.3937Z" fill="#335D36"/>
<path d="M52.3936 52.3937H48.3633V56.4241H52.3936V52.3937Z" fill="#335D36"/>
<path d="M56.4249 52.3937H52.3945V56.4241H56.4249V52.3937Z" fill="#335D36"/>
<path d="M68.5147 52.3937H64.4844V56.4241H68.5147V52.3937Z" fill="#335D36"/>
<path d="M72.5455 52.3937H68.5156V56.4241H72.5455V52.3937Z" fill="#335D36"/>
<path d="M80.6046 52.3937H76.5742V56.4241H80.6046V52.3937Z" fill="#335D36"/>
<path d="M92.6944 52.3937H88.6641V56.4241H92.6944V52.3937Z" fill="#335D36"/>
<path d="M112.846 52.3937H108.816V56.4241H112.846V52.3937Z" fill="#335D36"/>
<path d="M124.941 52.3937H120.91V56.4241H124.941V52.3937Z" fill="#335D36"/>
<path d="M12.0889 56.4241H8.05859V60.4545H12.0889V56.4241Z" fill="#335D36"/>
<path d="M28.2099 56.4241H24.1797V60.4545H28.2099V56.4241Z" fill="#335D36"/>
<path d="M32.2413 56.4241H28.2109V60.4545H32.2413V56.4241Z" fill="#335D36"/>
<path d="M36.2725 56.4241H32.2422V60.4545H36.2725V56.4241Z" fill="#335D36"/>
<path d="M44.335 56.4241H40.3047V60.4545H44.335V56.4241Z" fill="#335D36"/>
<path d="M56.4249 56.4241H52.3945V60.4545H56.4249V56.4241Z" fill="#335D36"/>
<path d="M68.5147 56.4241H64.4844V60.4545H68.5147V56.4241Z" fill="#335D36"/>
<path d="M72.5455 56.4241H68.5156V60.4545H72.5455V56.4241Z" fill="#335D36"/>
<path d="M80.6046 56.4241H76.5742V60.4545H80.6046V56.4241Z" fill="#335D36"/>
<path d="M92.6944 56.4241H88.6641V60.4545H92.6944V56.4241Z" fill="#335D36"/>
<path d="M96.7296 56.4241H92.6992V60.4545H96.7296V56.4241Z" fill="#335D36"/>
<path d="M104.788 56.4241H100.758V60.4545H104.788V56.4241Z" fill="#335D36"/>
<path d="M108.819 56.4241H104.789V60.4545H108.819V56.4241Z" fill="#335D36"/>
<path d="M112.846 56.4241H108.816V60.4545H112.846V56.4241Z" fill="#335D36"/>
<path d="M124.941 56.4241H120.91V60.4545H124.941V56.4241Z" fill="#335D36"/>
<path d="M128.972 56.4241H124.941V60.4545H128.972V56.4241Z" fill="#335D36"/>
<path d="M24.1827 60.4539H20.1523V64.4843H24.1827V60.4539Z" fill="#335D36"/>
<path d="M52.3936 60.4539H48.3633V64.4843H52.3936V60.4539Z" fill="#335D36"/>
<path d="M56.4249 60.4539H52.3945V64.4843H56.4249V60.4539Z" fill="#335D36"/>
<path d="M60.4561 60.4539H56.4258V64.4843H60.4561V60.4539Z" fill="#335D36"/>
<path d="M72.5455 60.4539H68.5156V64.4843H72.5455V60.4539Z" fill="#335D36"/>
<path d="M76.5767 60.4539H72.5469V64.4843H76.5767V60.4539Z" fill="#335D36"/>
<path d="M80.6046 60.4539H76.5742V64.4843H80.6046V60.4539Z" fill="#335D36"/>
<path d="M84.6358 60.4539H80.6055V64.4843H84.6358V60.4539Z" fill="#335D36"/>
<path d="M88.6671 60.4539H84.6367V64.4843H88.6671V60.4539Z" fill="#335D36"/>
<path d="M92.6944 60.4539H88.6641V64.4843H92.6944V60.4539Z" fill="#335D36"/>
<path d="M100.757 60.4539H96.7266V64.4843H100.757V60.4539Z" fill="#335D36"/>
<path d="M104.788 60.4539H100.758V64.4843H104.788V60.4539Z" fill="#335D36"/>
<path d="M108.819 60.4539H104.789V64.4843H108.819V60.4539Z" fill="#335D36"/>
<path d="M112.846 60.4539H108.816V64.4843H112.846V60.4539Z" fill="#335D36"/>
<path d="M120.909 60.4539H116.879V64.4843H120.909V60.4539Z" fill="#335D36"/>
<path d="M12.0889 64.4848H8.05859V68.5152H12.0889V64.4848Z" fill="#335D36"/>
<path d="M16.1202 64.4848H12.0898V68.5152H16.1202V64.4848Z" fill="#335D36"/>
<path d="M20.1514 64.4848H16.1211V68.5152H20.1514V64.4848Z" fill="#335D36"/>
<path d="M28.2099 64.4848H24.1797V68.5152H28.2099V64.4848Z" fill="#335D36"/>
<path d="M40.3038 64.4848H36.2734V68.5152H40.3038V64.4848Z" fill="#335D36"/>
<path d="M48.3662 64.4848H44.3359V68.5152H48.3662V64.4848Z" fill="#335D36"/>
<path d="M52.3936 64.4848H48.3633V68.5152H52.3936V64.4848Z" fill="#335D36"/>
<path d="M56.4249 64.4848H52.3945V68.5152H56.4249V64.4848Z" fill="#335D36"/>
<path d="M60.4561 64.4848H56.4258V68.5152H60.4561V64.4848Z" fill="#335D36"/>
<path d="M64.4835 64.4848H60.4531V68.5152H64.4835V64.4848Z" fill="#335D36"/>
<path d="M68.5147 64.4848H64.4844V68.5152H68.5147V64.4848Z" fill="#335D36"/>
<path d="M88.6671 64.4848H84.6367V68.5152H88.6671V64.4848Z" fill="#335D36"/>
<path d="M92.6944 64.4848H88.6641V68.5152H92.6944V64.4848Z" fill="#335D36"/>
<path d="M108.819 64.4848H104.789V68.5152H108.819V64.4848Z" fill="#335D36"/>
<path d="M116.877 64.4848H112.848V68.5152H116.877V64.4848Z" fill="#335D36"/>
<path d="M120.909 64.4848H116.879V68.5152H120.909V64.4848Z" fill="#335D36"/>
<path d="M128.972 64.4848H124.941V68.5152H128.972V64.4848Z" fill="#335D36"/>
<path d="M4.0303 68.5152H0V72.545H4.0303V68.5152Z" fill="#335D36"/>
<path d="M12.0889 68.5152H8.05859V72.545H12.0889V68.5152Z" fill="#335D36"/>
<path d="M32.2413 68.5152H28.2109V72.545H32.2413V68.5152Z" fill="#335D36"/>
<path d="M36.2725 68.5152H32.2422V72.545H36.2725V68.5152Z" fill="#335D36"/>
<path d="M40.3038 68.5152H36.2734V72.545H40.3038V68.5152Z" fill="#335D36"/>
<path d="M48.3662 68.5152H44.3359V72.545H48.3662V68.5152Z" fill="#335D36"/>
<path d="M68.5147 68.5152H64.4844V72.545H68.5147V68.5152Z" fill="#335D36"/>
<path d="M72.5455 68.5152H68.5156V72.545H72.5455V68.5152Z" fill="#335D36"/>
<path d="M88.6671 68.5152H84.6367V72.545H88.6671V68.5152Z" fill="#335D36"/>
<path d="M96.7296 68.5152H92.6992V72.545H96.7296V68.5152Z" fill="#335D36"/>
<path d="M120.909 68.5152H116.879V72.545H120.909V68.5152Z" fill="#335D36"/>
<path d="M124.941 68.5152H120.91V72.545H124.941V68.5152Z" fill="#335D36"/>
<path d="M8.06153 72.5456H4.03125V76.5759H8.06153V72.5456Z" fill="#335D36"/>
<path d="M12.0889 72.5456H8.05859V76.5759H12.0889V72.5456Z" fill="#335D36"/>
<path d="M20.1514 72.5456H16.1211V76.5759H20.1514V72.5456Z" fill="#335D36"/>
<path d="M24.1827 72.5456H20.1523V76.5759H24.1827V72.5456Z" fill="#335D36"/>
<path d="M28.2099 72.5456H24.1797V76.5759H28.2099V72.5456Z" fill="#335D36"/>
<path d="M36.2725 72.5456H32.2422V76.5759H36.2725V72.5456Z" fill="#335D36"/>
<path d="M52.3936 72.5456H48.3633V76.5759H52.3936V72.5456Z" fill="#335D36"/>
<path d="M56.4249 72.5456H52.3945V76.5759H56.4249V72.5456Z" fill="#335D36"/>
<path d="M64.4835 72.5456H60.4531V76.5759H64.4835V72.5456Z" fill="#335D36"/>
<path d="M76.5767 72.5456H72.5469V76.5759H76.5767V72.5456Z" fill="#335D36"/>
<path d="M84.6358 72.5456H80.6055V76.5759H84.6358V72.5456Z" fill="#335D36"/>
<path d="M88.6671 72.5456H84.6367V76.5759H88.6671V72.5456Z" fill="#335D36"/>
<path d="M92.6944 72.5456H88.6641V76.5759H92.6944V72.5456Z" fill="#335D36"/>
<path d="M96.7296 72.5456H92.6992V76.5759H96.7296V72.5456Z" fill="#335D36"/>
<path d="M100.757 72.5456H96.7266V76.5759H100.757V72.5456Z" fill="#335D36"/>
<path d="M108.819 72.5456H104.789V76.5759H108.819V72.5456Z" fill="#335D36"/>
<path d="M112.846 72.5456H108.816V76.5759H112.846V72.5456Z" fill="#335D36"/>
<path d="M120.909 72.5456H116.879V76.5759H120.909V72.5456Z" fill="#335D36"/>
<path d="M128.972 72.5456H124.941V76.5759H128.972V72.5456Z" fill="#335D36"/>
<path d="M4.0303 76.5759H0V80.6063H4.0303V76.5759Z" fill="#335D36"/>
<path d="M8.06153 76.5759H4.03125V80.6063H8.06153V76.5759Z" fill="#335D36"/>
<path d="M36.2725 76.5759H32.2422V80.6063H36.2725V76.5759Z" fill="#335D36"/>
<path d="M40.3038 76.5759H36.2734V80.6063H40.3038V76.5759Z" fill="#335D36"/>
<path d="M44.335 76.5759H40.3047V80.6063H44.335V76.5759Z" fill="#335D36"/>
<path d="M60.4561 76.5759H56.4258V80.6063H60.4561V76.5759Z" fill="#335D36"/>
<path d="M68.5147 76.5759H64.4844V80.6063H68.5147V76.5759Z" fill="#335D36"/>
<path d="M88.6671 76.5759H84.6367V80.6063H88.6671V76.5759Z" fill="#335D36"/>
<path d="M96.7296 76.5759H92.6992V80.6063H96.7296V76.5759Z" fill="#335D36"/>
<path d="M100.757 76.5759H96.7266V80.6063H100.757V76.5759Z" fill="#335D36"/>
<path d="M104.788 76.5759H100.758V80.6063H104.788V76.5759Z" fill="#335D36"/>
<path d="M112.846 76.5759H108.816V80.6063H112.846V76.5759Z" fill="#335D36"/>
<path d="M128.972 76.5759H124.941V80.6063H128.972V76.5759Z" fill="#335D36"/>
<path d="M4.0303 80.6058H0V84.6361H4.0303V80.6058Z" fill="#335D36"/>
<path d="M8.06153 80.6058H4.03125V84.6361H8.06153V80.6058Z" fill="#335D36"/>
<path d="M16.1202 80.6058H12.0898V84.6361H16.1202V80.6058Z" fill="#335D36"/>
<path d="M28.2099 80.6058H24.1797V84.6361H28.2099V80.6058Z" fill="#335D36"/>
<path d="M40.3038 80.6058H36.2734V84.6361H40.3038V80.6058Z" fill="#335D36"/>
<path d="M44.335 80.6058H40.3047V84.6361H44.335V80.6058Z" fill="#335D36"/>
<path d="M52.3936 80.6058H48.3633V84.6361H52.3936V80.6058Z" fill="#335D36"/>
<path d="M56.4249 80.6058H52.3945V84.6361H56.4249V80.6058Z" fill="#335D36"/>
<path d="M68.5147 80.6058H64.4844V84.6361H68.5147V80.6058Z" fill="#335D36"/>
<path d="M80.6046 80.6058H76.5742V84.6361H80.6046V80.6058Z" fill="#335D36"/>
<path d="M88.6671 80.6058H84.6367V84.6361H88.6671V80.6058Z" fill="#335D36"/>
<path d="M92.6944 80.6058H88.6641V84.6361H92.6944V80.6058Z" fill="#335D36"/>
<path d="M108.819 80.6058H104.789V84.6361H108.819V80.6058Z" fill="#335D36"/>
<path d="M120.909 80.6058H116.879V84.6361H120.909V80.6058Z" fill="#335D36"/>
<path d="M4.0303 84.6367H0V88.667H4.0303V84.6367Z" fill="#335D36"/>
<path d="M8.06153 84.6367H4.03125V88.667H8.06153V84.6367Z" fill="#335D36"/>
<path d="M20.1514 84.6367H16.1211V88.667H20.1514V84.6367Z" fill="#335D36"/>
<path d="M24.1827 84.6367H20.1523V88.667H24.1827V84.6367Z" fill="#335D36"/>
<path d="M32.2413 84.6367H28.2109V88.667H32.2413V84.6367Z" fill="#335D36"/>
<path d="M48.3662 84.6367H44.3359V88.667H48.3662V84.6367Z" fill="#335D36"/>
<path d="M56.4249 84.6367H52.3945V88.667H56.4249V84.6367Z" fill="#335D36"/>
<path d="M76.5767 84.6367H72.5469V88.667H76.5767V84.6367Z" fill="#335D36"/>
<path d="M80.6046 84.6367H76.5742V88.667H80.6046V84.6367Z" fill="#335D36"/>
<path d="M84.6358 84.6367H80.6055V88.667H84.6358V84.6367Z" fill="#335D36"/>
<path d="M96.7296 84.6367H92.6992V88.667H96.7296V84.6367Z" fill="#335D36"/>
<path d="M104.788 84.6367H100.758V88.667H104.788V84.6367Z" fill="#335D36"/>
<path d="M112.846 84.6367H108.816V88.667H112.846V84.6367Z" fill="#335D36"/>
<path d="M124.941 84.6367H120.91V88.667H124.941V84.6367Z" fill="#335D36"/>
<path d="M128.972 84.6367H124.941V88.667H128.972V84.6367Z" fill="#335D36"/>
<path d="M12.0889 88.666H8.05859V92.6963H12.0889V88.666Z" fill="#335D36"/>
<path d="M16.1202 88.666H12.0898V92.6963H16.1202V88.666Z" fill="#335D36"/>
<path d="M20.1514 88.666H16.1211V92.6963H20.1514V88.666Z" fill="#335D36"/>
<path d="M24.1827 88.666H20.1523V92.6963H24.1827V88.666Z" fill="#335D36"/>
<path d="M28.2099 88.666H24.1797V92.6963H28.2099V88.666Z" fill="#335D36"/>
<path d="M32.2413 88.666H28.2109V92.6963H32.2413V88.666Z" fill="#335D36"/>
<path d="M44.335 88.666H40.3047V92.6963H44.335V88.666Z" fill="#335D36"/>
<path d="M56.4249 88.666H52.3945V92.6963H56.4249V88.666Z" fill="#335D36"/>
<path d="M60.4561 88.666H56.4258V92.6963H60.4561V88.666Z" fill="#335D36"/>
<path d="M64.4835 88.666H60.4531V92.6963H64.4835V88.666Z" fill="#335D36"/>
<path d="M76.5767 88.666H72.5469V92.6963H76.5767V88.666Z" fill="#335D36"/>
<path d="M84.6358 88.666H80.6055V92.6963H84.6358V88.666Z" fill="#335D36"/>
<path d="M88.6671 88.666H84.6367V92.6963H88.6671V88.666Z" fill="#335D36"/>
<path d="M96.7296 88.666H92.6992V92.6963H96.7296V88.666Z" fill="#335D36"/>
<path d="M100.757 88.666H96.7266V92.6963H100.757V88.666Z" fill="#335D36"/>
<path d="M108.819 88.666H104.789V92.6963H108.819V88.666Z" fill="#335D36"/>
<path d="M112.846 88.666H108.816V92.6963H112.846V88.666Z" fill="#335D36"/>
<path d="M128.972 88.666H124.941V92.6963H128.972V88.666Z" fill="#335D36"/>
<path d="M32.2413 92.6969H28.2109V96.7272H32.2413V92.6969Z" fill="#335D36"/>
<path d="M44.335 92.6969H40.3047V96.7272H44.335V92.6969Z" fill="#335D36"/>
<path d="M48.3662 92.6969H44.3359V96.7272H48.3662V92.6969Z" fill="#335D36"/>
<path d="M56.4249 92.6969H52.3945V96.7272H56.4249V92.6969Z" fill="#335D36"/>
<path d="M60.4561 92.6969H56.4258V96.7272H60.4561V92.6969Z" fill="#335D36"/>
<path d="M64.4835 92.6969H60.4531V96.7272H64.4835V92.6969Z" fill="#335D36"/>
<path d="M68.5147 92.6969H64.4844V96.7272H68.5147V92.6969Z" fill="#335D36"/>
<path d="M72.5455 92.6969H68.5156V96.7272H72.5455V92.6969Z" fill="#335D36"/>
<path d="M76.5767 92.6969H72.5469V96.7272H76.5767V92.6969Z" fill="#335D36"/>
<path d="M88.6671 92.6969H84.6367V96.7272H88.6671V92.6969Z" fill="#335D36"/>
<path d="M104.788 92.6969H100.758V96.7272H104.788V92.6969Z" fill="#335D36"/>
<path d="M116.877 92.6969H112.848V96.7272H116.877V92.6969Z" fill="#335D36"/>
<path d="M4.0303 96.7272H0V100.758H4.0303V96.7272Z" fill="#335D36"/>
<path d="M8.06153 96.7272H4.03125V100.758H8.06153V96.7272Z" fill="#335D36"/>
<path d="M16.1202 96.7272H12.0898V100.758H16.1202V96.7272Z" fill="#335D36"/>
<path d="M20.1514 96.7272H16.1211V100.758H20.1514V96.7272Z" fill="#335D36"/>
<path d="M28.2099 96.7272H24.1797V100.758H28.2099V96.7272Z" fill="#335D36"/>
<path d="M36.2725 96.7272H32.2422V100.758H36.2725V96.7272Z" fill="#335D36"/>
<path d="M44.335 96.7272H40.3047V100.758H44.335V96.7272Z" fill="#335D36"/>
<path d="M48.3662 96.7272H44.3359V100.758H48.3662V96.7272Z" fill="#335D36"/>
<path d="M56.4249 96.7272H52.3945V100.758H56.4249V96.7272Z" fill="#335D36"/>
<path d="M60.4561 96.7272H56.4258V100.758H60.4561V96.7272Z" fill="#335D36"/>
<path d="M72.5455 96.7272H68.5156V100.758H72.5455V96.7272Z" fill="#335D36"/>
<path d="M80.6046 96.7272H76.5742V100.758H80.6046V96.7272Z" fill="#335D36"/>
<path d="M88.6671 96.7272H84.6367V100.758H88.6671V96.7272Z" fill="#335D36"/>
<path d="M100.757 96.7272H96.7266V100.758H100.757V96.7272Z" fill="#335D36"/>
<path d="M104.788 96.7272H100.758V100.758H104.788V96.7272Z" fill="#335D36"/>
<path d="M108.819 96.7272H104.789V100.758H108.819V96.7272Z" fill="#335D36"/>
<path d="M112.846 96.7272H108.816V100.758H112.846V96.7272Z" fill="#335D36"/>
<path d="M116.877 96.7272H112.848V100.758H116.877V96.7272Z" fill="#335D36"/>
<path d="M120.909 96.7272H116.879V100.758H120.909V96.7272Z" fill="#335D36"/>
<path d="M128.972 96.7272H124.941V100.758H128.972V96.7272Z" fill="#335D36"/>
<path d="M132.999 96.7272H128.969V100.758H132.999V96.7272Z" fill="#335D36"/>
<path d="M36.2725 100.757H32.2422V104.787H36.2725V100.757Z" fill="#335D36"/>
<path d="M44.335 100.757H40.3047V104.787H44.335V100.757Z" fill="#335D36"/>
<path d="M52.3936 100.757H48.3633V104.787H52.3936V100.757Z" fill="#335D36"/>
<path d="M60.4561 100.757H56.4258V104.787H60.4561V100.757Z" fill="#335D36"/>
<path d="M64.4835 100.757H60.4531V104.787H64.4835V100.757Z" fill="#335D36"/>
<path d="M68.5147 100.757H64.4844V104.787H68.5147V100.757Z" fill="#335D36"/>
<path d="M76.5767 100.757H72.5469V104.787H76.5767V100.757Z" fill="#335D36"/>
<path d="M80.6046 100.757H76.5742V104.787H80.6046V100.757Z" fill="#335D36"/>
<path d="M88.6671 100.757H84.6367V104.787H88.6671V100.757Z" fill="#335D36"/>
<path d="M96.7296 100.757H92.6992V104.787H96.7296V100.757Z" fill="#335D36"/>
<path d="M100.757 100.757H96.7266V104.787H100.757V100.757Z" fill="#335D36"/>
<path d="M116.877 100.757H112.848V104.787H116.877V100.757Z" fill="#335D36"/>
<path d="M124.941 100.757H120.91V104.787H124.941V100.757Z" fill="#335D36"/>
<path d="M36.2725 104.788H32.2422V108.818H36.2725V104.788Z" fill="#335D36"/>
<path d="M40.3038 104.788H36.2734V108.818H40.3038V104.788Z" fill="#335D36"/>
<path d="M48.3662 104.788H44.3359V108.818H48.3662V104.788Z" fill="#335D36"/>
<path d="M52.3936 104.788H48.3633V108.818H52.3936V104.788Z" fill="#335D36"/>
<path d="M64.4835 104.788H60.4531V108.818H64.4835V104.788Z" fill="#335D36"/>
<path d="M68.5147 104.788H64.4844V108.818H68.5147V104.788Z" fill="#335D36"/>
<path d="M72.5455 104.788H68.5156V108.818H72.5455V104.788Z" fill="#335D36"/>
<path d="M88.6671 104.788H84.6367V108.818H88.6671V104.788Z" fill="#335D36"/>
<path d="M92.6944 104.788H88.6641V108.818H92.6944V104.788Z" fill="#335D36"/>
<path d="M100.757 104.788H96.7266V108.818H100.757V104.788Z" fill="#335D36"/>
<path d="M108.819 104.788H104.789V108.818H108.819V104.788Z" fill="#335D36"/>
<path d="M116.877 104.788H112.848V108.818H116.877V104.788Z" fill="#335D36"/>
<path d="M120.909 104.788H116.879V108.818H120.909V104.788Z" fill="#335D36"/>
<path d="M40.3038 108.817H36.2734V112.848H40.3038V108.817Z" fill="#335D36"/>
<path d="M48.3662 108.817H44.3359V112.848H48.3662V108.817Z" fill="#335D36"/>
<path d="M56.4249 108.817H52.3945V112.848H56.4249V108.817Z" fill="#335D36"/>
<path d="M60.4561 108.817H56.4258V112.848H60.4561V108.817Z" fill="#335D36"/>
<path d="M64.4835 108.817H60.4531V112.848H64.4835V108.817Z" fill="#335D36"/>
<path d="M68.5147 108.817H64.4844V112.848H68.5147V108.817Z" fill="#335D36"/>
<path d="M72.5455 108.817H68.5156V112.848H72.5455V108.817Z" fill="#335D36"/>
<path d="M76.5767 108.817H72.5469V112.848H76.5767V108.817Z" fill="#335D36"/>
<path d="M84.6358 108.817H80.6055V112.848H84.6358V108.817Z" fill="#335D36"/>
<path d="M88.6671 108.817H84.6367V112.848H88.6671V108.817Z" fill="#335D36"/>
<path d="M92.6944 108.817H88.6641V112.848H92.6944V108.817Z" fill="#335D36"/>
<path d="M100.757 108.817H96.7266V112.848H100.757V108.817Z" fill="#335D36"/>
<path d="M116.877 108.817H112.848V112.848H116.877V108.817Z" fill="#335D36"/>
<path d="M128.972 108.817H124.941V112.848H128.972V108.817Z" fill="#335D36"/>
<path d="M36.2725 112.849H32.2422V116.879H36.2725V112.849Z" fill="#335D36"/>
<path d="M48.3662 112.849H44.3359V116.879H48.3662V112.849Z" fill="#335D36"/>
<path d="M64.4835 112.849H60.4531V116.879H64.4835V112.849Z" fill="#335D36"/>
<path d="M76.5767 112.849H72.5469V116.879H76.5767V112.849Z" fill="#335D36"/>
<path d="M80.6046 112.849H76.5742V116.879H80.6046V112.849Z" fill="#335D36"/>
<path d="M84.6358 112.849H80.6055V116.879H84.6358V112.849Z" fill="#335D36"/>
<path d="M100.757 112.849H96.7266V116.879H100.757V112.849Z" fill="#335D36"/>
<path d="M104.788 112.849H100.758V116.879H104.788V112.849Z" fill="#335D36"/>
<path d="M108.819 112.849H104.789V116.879H108.819V112.849Z" fill="#335D36"/>
<path d="M112.846 112.849H108.816V116.879H112.846V112.849Z" fill="#335D36"/>
<path d="M116.877 112.849H112.848V116.879H116.877V112.849Z" fill="#335D36"/>
<path d="M120.909 112.849H116.879V116.879H120.909V112.849Z" fill="#335D36"/>
<path d="M128.972 112.849H124.941V116.879H128.972V112.849Z" fill="#335D36"/>
<path d="M48.3662 116.879H44.3359V120.909H48.3662V116.879Z" fill="#335D36"/>
<path d="M52.3936 116.879H48.3633V120.909H52.3936V116.879Z" fill="#335D36"/>
<path d="M60.4561 116.879H56.4258V120.909H60.4561V116.879Z" fill="#335D36"/>
<path d="M68.5147 116.879H64.4844V120.909H68.5147V116.879Z" fill="#335D36"/>
<path d="M80.6046 116.879H76.5742V120.909H80.6046V116.879Z" fill="#335D36"/>
<path d="M88.6671 116.879H84.6367V120.909H88.6671V116.879Z" fill="#335D36"/>
<path d="M96.7296 116.879H92.6992V120.909H96.7296V116.879Z" fill="#335D36"/>
<path d="M108.819 116.879H104.789V120.909H108.819V116.879Z" fill="#335D36"/>
<path d="M112.846 116.879H108.816V120.909H112.846V116.879Z" fill="#335D36"/>
<path d="M116.877 116.879H112.848V120.909H116.877V116.879Z" fill="#335D36"/>
<path d="M120.909 116.879H116.879V120.909H120.909V116.879Z" fill="#335D36"/>
<path d="M124.941 116.879H120.91V120.909H124.941V116.879Z" fill="#335D36"/>
<path d="M44.335 120.909H40.3047V124.939H44.335V120.909Z" fill="#335D36"/>
<path d="M48.3662 120.909H44.3359V124.939H48.3662V120.909Z" fill="#335D36"/>
<path d="M52.3936 120.909H48.3633V124.939H52.3936V120.909Z" fill="#335D36"/>
<path d="M56.4249 120.909H52.3945V124.939H56.4249V120.909Z" fill="#335D36"/>
<path d="M60.4561 120.909H56.4258V124.939H60.4561V120.909Z" fill="#335D36"/>
<path d="M68.5147 120.909H64.4844V124.939H68.5147V120.909Z" fill="#335D36"/>
<path d="M76.5767 120.909H72.5469V124.939H76.5767V120.909Z" fill="#335D36"/>
<path d="M80.6046 120.909H76.5742V124.939H80.6046V120.909Z" fill="#335D36"/>
<path d="M100.757 120.909H96.7266V124.939H100.757V120.909Z" fill="#335D36"/>
<path d="M108.819 120.909H104.789V124.939H108.819V120.909Z" fill="#335D36"/>
<path d="M112.846 120.909H108.816V124.939H112.846V120.909Z" fill="#335D36"/>
<path d="M116.877 120.909H112.848V124.939H116.877V120.909Z" fill="#335D36"/>
<path d="M40.3038 124.939H36.2734V128.97H40.3038V124.939Z" fill="#335D36"/>
<path d="M56.4249 124.939H52.3945V128.97H56.4249V124.939Z" fill="#335D36"/>
<path d="M60.4561 124.939H56.4258V128.97H60.4561V124.939Z" fill="#335D36"/>
<path d="M72.5455 124.939H68.5156V128.97H72.5455V124.939Z" fill="#335D36"/>
<path d="M76.5767 124.939H72.5469V128.97H76.5767V124.939Z" fill="#335D36"/>
<path d="M80.6046 124.939H76.5742V128.97H80.6046V124.939Z" fill="#335D36"/>
<path d="M84.6358 124.939H80.6055V128.97H84.6358V124.939Z" fill="#335D36"/>
<path d="M88.6671 124.939H84.6367V128.97H88.6671V124.939Z" fill="#335D36"/>
<path d="M100.757 124.939H96.7266V128.97H100.757V124.939Z" fill="#335D36"/>
<path d="M104.788 124.939H100.758V128.97H104.788V124.939Z" fill="#335D36"/>
<path d="M36.2725 128.97H32.2422V133H36.2725V128.97Z" fill="#335D36"/>
<path d="M40.3038 128.97H36.2734V133H40.3038V128.97Z" fill="#335D36"/>
<path d="M56.4249 128.97H52.3945V133H56.4249V128.97Z" fill="#335D36"/>
<path d="M64.4835 128.97H60.4531V133H64.4835V128.97Z" fill="#335D36"/>
<path d="M68.5147 128.97H64.4844V133H68.5147V128.97Z" fill="#335D36"/>
<path d="M84.6358 128.97H80.6055V133H84.6358V128.97Z" fill="#335D36"/>
<path d="M88.6671 128.97H84.6367V133H88.6671V128.97Z" fill="#335D36"/>
<path d="M92.6944 128.97H88.6641V133H92.6944V128.97Z" fill="#335D36"/>
<path d="M100.757 128.97H96.7266V133H100.757V128.97Z" fill="#335D36"/>
<path d="M104.788 128.97H100.758V133H104.788V128.97Z" fill="#335D36"/>
<path d="M132.999 128.97H128.969V133H132.999V128.97Z" fill="#335D36"/>
<path d="M23.9803 0H4.23181H0V4.23181V23.9803V28.2121H4.23181H23.9803H28.2121V23.9803V4.23181V0H23.9803ZM23.9803 23.9803H4.23181V4.23181H23.9803V23.9803Z" fill="#335D36"/>
<path d="M128.769 0H109.021H104.789V4.23181V23.9803V28.2121H109.021H128.769H133.001V23.9803V4.23181V0H128.769ZM128.769 23.9803H109.021V4.23181H128.769V23.9803Z" fill="#335D36"/>
<path d="M23.9803 104.788H4.23181H0V109.02V128.768V133H4.23181H23.9803H28.2121V128.768V109.02V104.788H23.9803ZM23.9803 128.768H4.23181V109.02H23.9803V128.768Z" fill="#335D36"/>
<path d="M20.1495 8.06084H8.05859V20.1517H20.1495V8.06084Z" fill="#335D36"/>
<path d="M124.938 8.06084H112.848V20.1517H124.938V8.06084Z" fill="#335D36"/>
<path d="M20.1495 112.849H8.05859V124.939H20.1495V112.849Z" fill="#335D36"/>
</g>
<defs>
<clipPath id="clip0_71_1287">
<rect width="133" height="133" fill="white"/>
</clipPath>
</defs>
</svg>
